<?xml version="1.0" encoding="UTF-8" standalone="no"?>
<svg
   xmlns:dc="http://purl.org/dc/elements/1.1/"
   xmlns:cc="http://creativecommons.org/ns#"
   xmlns:rdf="http://www.w3.org/1999/02/22-rdf-syntax-ns#"
   xmlns:svg="http://www.w3.org/2000/svg"
   xmlns="http://www.w3.org/2000/svg"
   xmlns:sodipodi="http://sodipodi.sourceforge.net/DTD/sodipodi-0.dtd"
   xmlns:inkscape="http://www.inkscape.org/namespaces/inkscape"
   width="24"
   height="24"
   viewBox="0 0 24 24"
   version="1.1"
   id="svg4491"
   sodipodi:docname="icone_px.svg"
   inkscape:version="0.92.1 r15371">
  <metadata
     id="metadata4497">
    <rdf:RDF>
      <cc:Work
         rdf:about="">
        <dc:format>image/svg+xml</dc:format>
        <dc:type
           rdf:resource="http://purl.org/dc/dcmitype/StillImage" />
        <dc:title />
      </cc:Work>
    </rdf:RDF>
  </metadata>
  <defs
     id="defs4495" />
  <sodipodi:namedview
     pagecolor="#ffffff"
     bordercolor="#666666"
     borderopacity="1"
     objecttolerance="10"
     gridtolerance="10"
     guidetolerance="10"
     inkscape:pageopacity="0"
     inkscape:pageshadow="2"
     inkscape:window-width="1920"
     inkscape:window-height="1017"
     id="namedview4493"
     showgrid="false"
     inkscape:zoom="1.5357475"
     inkscape:cx="-102.91043"
     inkscape:cy="8.2076866"
     inkscape:window-x="-8"
     inkscape:window-y="-8"
     inkscape:window-maximized="1"
     inkscape:current-layer="svg4491"
     showguides="false" />
  <text
     xml:space="preserve"
     style="font-style:normal;font-variant:normal;font-weight:bold;font-stretch:normal;font-size:13.33333333px;line-height:1.25;font-family:'Courier New';-inkscape-font-specification:'Courier New Bold';letter-spacing:0px;word-spacing:0px;fill:#000000;fill-opacity:1;stroke:none;"
     x="16.115108"
     y="2.503597"
     id="text4520"><tspan
       sodipodi:role="line"
       id="tspan4518"
       x="16.115108"
       y="25.887171" /></text>
  <text
     xml:space="preserve"
     style="font-style:normal;font-variant:normal;font-weight:bold;font-stretch:normal;font-size:13.33333302px;line-height:1.25;font-family:Arial;-inkscape-font-specification:'Arial Bold';letter-spacing:0px;word-spacing:0px;fill:#000000;fill-opacity:1;stroke:none;"
     x="-4.7194247"
     y="-13.985611"
     id="text4566"><tspan
       sodipodi:role="line"
       id="tspan4564"
       x="-4.7194247"
       y="-2.2938237" /></text>
  <g
     id="g4550"
     inkscape:export-xdpi="96"
     inkscape:export-ydpi="96">
    <rect
       inkscape:export-ydpi="36"
       inkscape:export-xdpi="36"
       ry="96"
       rx="96"
       y="-138.5237"
       x="64.552338"
       height="192"
       width="192"
       id="rect4499"
       style="opacity:1;fill:#ffd9bb;fill-opacity:1;stroke:none;stroke-width:1.85188127;stroke-linecap:square;stroke-linejoin:miter;stroke-miterlimit:4;stroke-dasharray:1.85188133, 14.81505062;stroke-dashoffset:0;stroke-opacity:1" />
    <circle
       inkscape:export-ydpi="38.400002"
       inkscape:export-xdpi="38.400002"
       r="19.769609"
       cy="-14.786034"
       cx="160.23833"
       id="path4515"
       style="opacity:1;fill:#e46565;fill-opacity:1;stroke:none;stroke-width:0.75445497;stroke-linecap:square;stroke-linejoin:miter;stroke-miterlimit:4;stroke-dasharray:none;stroke-opacity:1" />
    <ellipse
       inkscape:export-ydpi="38.400002"
       inkscape:export-xdpi="38.400002"
       ry="12.381026"
       rx="13.222456"
       cy="-3.3995247"
       cx="160.23833"
       id="path4517"
       style="opacity:1;fill:none;fill-opacity:1;stroke:#1d4492;stroke-width:5.15749454;stroke-linecap:square;stroke-linejoin:miter;stroke-miterlimit:4;stroke-dasharray:none;stroke-opacity:1" />
    <path
       inkscape:export-ydpi="38.400002"
       inkscape:export-xdpi="38.400002"
       sodipodi:nodetypes="ccc"
       inkscape:connector-curvature="0"
       id="path4551-4-0-9"
       d="m 161.20083,-104.72389 c -4.79315,4.26321 -5.25541,9.126027 5.28608,16.391852 v 0"
       style="fill:none;stroke:#e46565;stroke-width:3.43762016;stroke-linecap:butt;stroke-linejoin:miter;stroke-miterlimit:4;stroke-dasharray:none;stroke-opacity:1" />
    <path
       inkscape:export-ydpi="38.400002"
       inkscape:export-xdpi="38.400002"
       sodipodi:nodetypes="ccc"
       inkscape:connector-curvature="0"
       id="path4551-4-0-9-5"
       d="m 155.74506,-103.07287 c -4.79315,4.263209 -5.25541,9.126022 5.28608,16.391847 v 0"
       style="fill:none;stroke:#e46565;stroke-width:3.43762016;stroke-linecap:butt;stroke-linejoin:miter;stroke-miterlimit:4;stroke-dasharray:none;stroke-opacity:1" />
    <path
       sodipodi:nodetypes="cscccscccscccscccsccsccsssccsccsss"
       inkscape:connector-curvature="0"
       inkscape:export-ydpi="38.400002"
       inkscape:export-xdpi="38.400002"
       inkscape:export-filename="D:\Dev\Source\SleepBabySleep\android_icon_low.png"
       style="fill:#e46565;fill-opacity:1;stroke:#ffffee;stroke-width:4.10679054;stroke-miterlimit:4;stroke-dasharray:none;stroke-opacity:1"
       id="path4489"
       d="m 247.00526,-36.986946 c 0.31609,-1.761694 0.47414,-3.607279 0.47414,-5.536755 0,-1.92947 -0.15806,-3.775055 -0.47414,-5.536749 -1.97562,-12.667412 -10.74736,-22.9859 -22.20592,-26.59318 -4.1883,-9.395695 -10.11514,-17.616932 -17.30639,-24.412028 -12.48588,-11.828522 -28.92299,-18.959182 -46.94061,-18.959182 -18.01761,0 -34.45472,7.13066 -46.94061,18.959182 -7.27026,6.795096 -13.19711,15.100224 -17.306387,24.412028 -11.45857,3.60728 -20.230296,13.841877 -22.205907,26.59318 -0.316105,1.761694 -0.474152,3.607279 -0.474152,5.536749 0,1.929476 0.158057,3.775061 0.474152,5.536755 1.975611,12.667412 10.747337,22.9859 22.205907,26.593177 4.109277,9.3118075 10.036127,17.5330418 17.148347,24.24425 12.48588,11.912398 29.00202,19.126952 47.09865,19.126952 18.09664,0 34.61278,-7.214554 47.17769,-19.126952 7.11221,-6.7112082 13.03906,-15.0163338 17.14834,-24.24425 11.37953,-3.607277 20.15127,-13.841876 22.12689,-26.593177 z m -31.1357,11.241278 c -0.79024,0 -1.50146,-0.167791 -2.2917,-0.251669 -1.5805,5.620641 -3.87221,10.821829 -6.79613,15.603568 -9.87807,16.0230196 -26.86836,26.593171 -46.22939,26.593171 -19.36102,0 -36.35132,-10.5701514 -46.22938,-26.593171 -2.92392,-4.781739 -5.21563,-9.982927 -6.79612,-15.603568 -0.79025,0.08388 -1.50147,0.251669 -2.29171,0.251669 -8.692716,0 -15.804925,-7.550112 -15.804925,-16.778033 0,-9.227914 7.112209,-16.77803 15.804925,-16.77803 0.79024,0 1.50146,0.167793 2.29171,0.251672 1.58049,-5.620639 3.8722,-10.821832 6.79612,-15.603571 9.87806,-16.023019 26.86836,-26.59318 46.22938,-26.59318 19.36103,0 36.35132,10.570161 46.22939,26.59318 2.92392,4.781739 5.21563,9.982932 6.79613,15.603571 0.79024,-0.08388 1.50146,-0.251672 2.2917,-0.251672 8.69271,0 15.80492,7.550116 15.80492,16.77803 0,9.227921 -7.11221,16.778033 -15.80492,16.778033 z" />
    <ellipse
       inkscape:export-ydpi="38.400002"
       inkscape:export-xdpi="38.400002"
       ry="8.8710985"
       rx="8.9943085"
       cy="-14.446323"
       cx="160.23833"
       id="path4519"
       style="opacity:1;fill:#ffff00;fill-opacity:1;stroke:none;stroke-width:0.70943719;stroke-linecap:square;stroke-linejoin:miter;stroke-miterlimit:4;stroke-dasharray:none;stroke-opacity:1" />
    <path
       inkscape:export-ydpi="38.400002"
       inkscape:export-xdpi="38.400002"
       sodipodi:nodetypes="ccc"
       inkscape:connector-curvature="0"
       id="path4551"
       d="m 124.35627,-55.434738 c 8.32014,6.985684 16.42632,9.266633 25.43196,-0.08845 v 0"
       style="fill:none;stroke:#e46565;stroke-width:4.56630611;stroke-linecap:butt;stroke-linejoin:miter;stroke-miterlimit:4;stroke-dasharray:none;stroke-opacity:1" />
    <path
       inkscape:export-ydpi="38.400002"
       inkscape:export-xdpi="38.400002"
       sodipodi:nodetypes="ccc"
       inkscape:connector-curvature="0"
       id="path4551-4"
       d="m 169.90019,-55.434738 c 8.56212,6.985684 16.90405,9.266633 26.17161,-0.08845 v 0"
       style="fill:none;stroke:#e46565;stroke-width:4.63223267;stroke-linecap:butt;stroke-linejoin:miter;stroke-miterlimit:4;stroke-dasharray:none;stroke-opacity:1" />
    <path
       inkscape:export-ydpi="38.400002"
       inkscape:export-xdpi="38.400002"
       sodipodi:nodetypes="ccc"
       inkscape:connector-curvature="0"
       id="path4551-4-0"
       d="m 161.37929,-44.023486 c -4.79315,4.263208 -5.25541,9.126018 5.28608,16.391843 v 0"
       style="fill:none;stroke:#e46565;stroke-width:3.43762016;stroke-linecap:butt;stroke-linejoin:miter;stroke-miterlimit:4;stroke-dasharray:none;stroke-opacity:1" />
  </g>
</svg>
