<?xml version="1.0" encoding="UTF-8" standalone="no"?>
<svg
   xmlns:dc="http://purl.org/dc/elements/1.1/"
   xmlns:cc="http://creativecommons.org/ns#"
   xmlns:rdf="http://www.w3.org/1999/02/22-rdf-syntax-ns#"
   xmlns:svg="http://www.w3.org/2000/svg"
   xmlns="http://www.w3.org/2000/svg"
   xmlns:sodipodi="http://sodipodi.sourceforge.net/DTD/sodipodi-0.dtd"
   xmlns:inkscape="http://www.inkscape.org/namespaces/inkscape"
   width="24"
   height="24"
   viewBox="0 0 24 24"
   version="1.1"
   id="svg4491"
   sodipodi:docname="icone_px.svg"
   inkscape:version="0.92.1 r15371">
  <metadata
     id="metadata4497">
    <rdf:RDF>
      <cc:Work
         rdf:about="">
        <dc:format>image/svg+xml</dc:format>
        <dc:type
           rdf:resource="http://purl.org/dc/dcmitype/StillImage" />
        <dc:title />
      </cc:Work>
    </rdf:RDF>
  </metadata>
  <defs
     id="defs4495" />
  <sodipodi:namedview
     pagecolor="#ffffff"
     bordercolor="#666666"
     borderopacity="1"
     objecttolerance="10"
     gridtolerance="10"
     guidetolerance="10"
     inkscape:pageopacity="0"
     inkscape:pageshadow="2"
     inkscape:window-width="1920"
     inkscape:window-height="1017"
     id="namedview4493"
     showgrid="false"
     inkscape:zoom="1.0859375"
     inkscape:cx="8.6882833"
     inkscape:cy="-84.102795"
     inkscape:window-x="-8"
     inkscape:window-y="-8"
     inkscape:window-maximized="1"
     inkscape:current-layer="svg4491"
     showguides="false" />
  <text
     xml:space="preserve"
     style="font-style:normal;font-variant:normal;font-weight:bold;font-stretch:normal;font-size:13.33333333px;line-height:1.25;font-family:'Courier New';-inkscape-font-specification:'Courier New Bold';letter-spacing:0px;word-spacing:0px;fill:#000000;fill-opacity:1;stroke:none;"
     x="16.115108"
     y="2.503597"
     id="text4520"><tspan
       sodipodi:role="line"
       id="tspan4518"
       x="16.115108"
       y="25.887171" /></text>
  <text
     xml:space="preserve"
     style="font-style:normal;font-variant:normal;font-weight:bold;font-stretch:normal;font-size:13.33333302px;line-height:1.25;font-family:Arial;-inkscape-font-specification:'Arial Bold';letter-spacing:0px;word-spacing:0px;fill:#000000;fill-opacity:1;stroke:none;"
     x="-4.7194247"
     y="-13.985611"
     id="text4566"><tspan
       sodipodi:role="line"
       id="tspan4564"
       x="-4.7194247"
       y="-2.2938237" /></text>
  <rect
     style="opacity:1;fill:#ffd9bb;fill-opacity:1;stroke:none;stroke-width:1.85188127;stroke-linecap:square;stroke-linejoin:miter;stroke-miterlimit:4;stroke-dasharray:1.85188133, 14.81505062;stroke-dashoffset:0;stroke-opacity:1"
     id="rect4499"
     width="192"
     height="192"
     x="64.552338"
     y="-138.5237"
     rx="96"
     ry="96"
     inkscape:export-xdpi="36"
     inkscape:export-ydpi="36" />
  <g
     id="g4507"
     transform="matrix(0.97959184,0,0,0.97959184,320.54326,-19.149765)"
     inkscape:export-xdpi="36"
     inkscape:export-ydpi="36">
    <path
       sodipodi:nodetypes="cscccscccscccscccsccsccsssccsccsss"
       inkscape:connector-curvature="0"
       inkscape:export-ydpi="38.400002"
       inkscape:export-xdpi="38.400002"
       inkscape:export-filename="D:\Dev\Source\SleepBabySleep\android_icon_low.png"
       style="fill:#e46565;fill-opacity:1;stroke:#ffffee;stroke-width:4.19234848;stroke-miterlimit:4;stroke-dasharray:none;stroke-opacity:1"
       id="path4489"
       d="m -75.070043,-18.208789 c 0.32268,-1.798396 0.48402,-3.682431 0.48402,-5.652104 0,-1.969667 -0.16135,-3.853702 -0.48402,-5.652098 -2.01678,-12.931316 -10.97126,-23.464773 -22.66854,-27.147204 -4.275557,-9.591439 -10.325877,-17.983952 -17.666937,-24.920612 -12.74601,-12.07495 -29.52556,-19.354163 -47.91854,-19.354163 -18.39298,0 -35.17253,7.279213 -47.91854,19.354163 -7.42173,6.93666 -13.47205,15.414812 -17.66694,24.920612 -11.69729,3.682431 -20.65176,14.130249 -22.66853,27.147204 -0.32269,1.798396 -0.48403,3.682431 -0.48403,5.652098 0,1.969673 0.16135,3.853708 0.48403,5.652104 2.01677,12.9313165 10.97124,23.4647725 22.66853,27.1472015 4.19489,9.5058035 10.24521,17.8983135 17.5056,24.7493385 12.74601,12.160573 29.60623,19.52543 48.07988,19.52543 18.47365,0 35.33388,-7.364857 48.16055,-19.52543 7.26039,-6.851025 13.31071,-15.329174 17.505597,-24.7493385 11.61661,-3.682429 20.57109,-14.130248 22.58787,-27.1472015 z M -106.8544,-6.7333175 c -0.80671,0 -1.53274,-0.171287 -2.33945,-0.256912 -1.61342,5.737737 -3.95288,11.047284 -6.93771,15.928642 -10.08386,16.3568325 -27.42812,27.1471955 -47.1925,27.1471955 -19.76438,0 -37.10864,-10.790363 -47.1925,-27.1471955 -2.98483,-4.881358 -5.32428,-10.190905 -6.9377,-15.928642 -0.80671,0.08563 -1.53275,0.256912 -2.33946,0.256912 -8.87381,0 -16.13419,-7.7074065 -16.13419,-17.1275755 0,-9.420162 7.26038,-17.127572 16.13419,-17.127572 0.80671,0 1.53275,0.171289 2.33946,0.256915 1.61342,-5.737736 3.95287,-11.047287 6.9377,-15.928645 10.08386,-16.356832 27.42812,-27.147202 47.1925,-27.147202 19.76438,0 37.10864,10.79037 47.1925,27.147202 2.98483,4.881358 5.32429,10.190909 6.93771,15.928645 0.80671,-0.08563 1.53274,-0.256915 2.33945,-0.256915 8.873807,0 16.134187,7.70741 16.134187,17.127572 0,9.420169 -7.26038,17.1275755 -16.134187,17.1275755 z" />
    <circle
       inkscape:export-ydpi="38.400002"
       inkscape:export-xdpi="38.400002"
       r="20.181477"
       cy="0.37130892"
       cx="-163.64462"
       id="path4515"
       style="opacity:1;fill:#e46565;fill-opacity:1;stroke:none;stroke-width:0.77017277;stroke-linecap:square;stroke-linejoin:miter;stroke-miterlimit:4;stroke-dasharray:none;stroke-opacity:1" />
    <ellipse
       inkscape:export-ydpi="38.400002"
       inkscape:export-xdpi="38.400002"
       ry="12.638965"
       rx="13.497924"
       cy="12.230049"
       cx="-154.27563"
       id="path4517"
       style="opacity:1;fill:none;fill-opacity:1;stroke:#1d4492;stroke-width:5.26494217;stroke-linecap:square;stroke-linejoin:miter;stroke-miterlimit:4;stroke-dasharray:none;stroke-opacity:1" />
    <ellipse
       inkscape:export-ydpi="38.400002"
       inkscape:export-xdpi="38.400002"
       ry="9.055913"
       rx="9.1816902"
       cy="0.71809733"
       cx="-163.20857"
       id="path4519"
       style="opacity:1;fill:#ffff00;fill-opacity:1;stroke:none;stroke-width:0.72421712;stroke-linecap:square;stroke-linejoin:miter;stroke-miterlimit:4;stroke-dasharray:none;stroke-opacity:1" />
    <path
       inkscape:export-ydpi="38.400002"
       inkscape:export-xdpi="38.400002"
       sodipodi:nodetypes="ccc"
       inkscape:connector-curvature="0"
       id="path4551"
       d="m -200.27422,-39.082576 c 8.49348,7.131219 16.76854,9.459687 25.96179,-0.09029 v 0"
       style="fill:none;stroke:#e46565;stroke-width:4.66143751;stroke-linecap:butt;stroke-linejoin:miter;stroke-miterlimit:4;stroke-dasharray:none;stroke-opacity:1" />
    <path
       inkscape:export-ydpi="38.400002"
       inkscape:export-xdpi="38.400002"
       sodipodi:nodetypes="ccc"
       inkscape:connector-curvature="0"
       id="path4551-4"
       d="m -151.7398,-39.082576 c 8.7405,7.131219 17.25622,9.459687 26.71685,-0.09029 v 0"
       style="fill:none;stroke:#e46565;stroke-width:4.72873735;stroke-linecap:butt;stroke-linejoin:miter;stroke-miterlimit:4;stroke-dasharray:none;stroke-opacity:1" />
  </g>
</svg>
