<?xml version="1.0" encoding="UTF-8" standalone="no"?>
<!-- Created with Inkscape (http://www.inkscape.org/) -->

<svg
   xmlns:dc="http://purl.org/dc/elements/1.1/"
   xmlns:cc="http://creativecommons.org/ns#"
   xmlns:rdf="http://www.w3.org/1999/02/22-rdf-syntax-ns#"
   xmlns:svg="http://www.w3.org/2000/svg"
   xmlns="http://www.w3.org/2000/svg"
   xmlns:sodipodi="http://sodipodi.sourceforge.net/DTD/sodipodi-0.dtd"
   xmlns:inkscape="http://www.inkscape.org/namespaces/inkscape"
   width="210mm"
   height="297mm"
   viewBox="0 0 210 297"
   version="1.1"
   id="svg4570"
   inkscape:version="0.92.1 r15371"
   sodipodi:docname="ic_all_inclusive_30_24px.svg">
  <defs
     id="defs4564" />
  <sodipodi:namedview
     id="base"
     pagecolor="#ffffff"
     bordercolor="#666666"
     borderopacity="1.0"
     inkscape:pageopacity="0.0"
     inkscape:pageshadow="2"
     inkscape:zoom="0.98994949"
     inkscape:cx="248.44906"
     inkscape:cy="656.15858"
     inkscape:document-units="mm"
     inkscape:current-layer="layer1"
     showgrid="false"
     inkscape:window-width="1920"
     inkscape:window-height="1017"
     inkscape:window-x="-8"
     inkscape:window-y="-8"
     inkscape:window-maximized="1" />
  <metadata
     id="metadata4567">
    <rdf:RDF>
      <cc:Work
         rdf:about="">
        <dc:format>image/svg+xml</dc:format>
        <dc:type
           rdf:resource="http://purl.org/dc/dcmitype/StillImage" />
        <dc:title></dc:title>
      </cc:Work>
    </rdf:RDF>
  </metadata>
  <g
     inkscape:label="Layer 1"
     inkscape:groupmode="layer"
     id="layer1">
    <g
       transform="translate(336.33917,-117.01844)"
       id="g4554">
      <path
         d="m -260.00341,223.86406 q 0.3135,0.2136 0.46853,0.4961 0.15503,0.27905 0.15503,0.627 0,0.37552 -0.2067,0.69591 -0.20327,0.31695 -0.59256,0.48232 -0.3893,0.16192 -1.01975,0.16192 -0.81993,0 -1.23334,-0.25494 -0.23082,-0.14469 -0.23082,-0.34451 0,-0.15158 0.0999,-0.25494 0.10336,-0.1068 0.24805,-0.1068 0.0999,0 0.20671,0.0689 0.15158,0.10335 0.28594,0.1378 0.2067,0.0482 0.56844,0.0482 0.61667,0 0.89228,-0.15847 0.27561,-0.16192 0.27561,-0.45476 0,-0.21704 -0.16192,-0.41685 -0.15848,-0.20326 -0.42719,-0.31351 -0.15503,-0.062 -0.52366,-0.0861 -0.1757,-0.0103 -0.27216,-0.1068 -0.093,-0.0999 -0.093,-0.2446 0,-0.15159 0.10335,-0.25494 0.10336,-0.10335 0.26183,-0.10335 0.3514,0 0.37552,-0.003 0.1378,-0.0138 0.2756,-0.0896 0.13781,-0.0758 0.22049,-0.20671 0.0861,-0.13435 0.0861,-0.2756 0,-0.22393 -0.19982,-0.38585 -0.19637,-0.16537 -0.59255,-0.16537 -0.50988,0 -0.7786,0.29628 -0.0792,0.0861 -0.12746,0.11024 -0.0724,0.0379 -0.16192,0.0379 -0.1447,0 -0.24805,-0.10335 -0.10335,-0.10336 -0.10335,-0.25494 0,-0.23771 0.31694,-0.46164 0.46165,-0.32729 1.15411,-0.32729 0.65457,0 1.05076,0.37207 0.39618,0.37207 0.39618,0.89573 0,0.27216 -0.11713,0.50987 -0.11713,0.23427 -0.3514,0.43408 z"
         style="font-style:normal;font-variant:normal;font-weight:bold;font-stretch:normal;font-size:medium;line-height:1.25;font-family:'Courier New';-inkscape-font-specification:'Courier New Bold';letter-spacing:0px;word-spacing:0px;fill:#000000;fill-opacity:1;stroke:none;stroke-width:0.26458332"
         id="path4527"
         inkscape:connector-curvature="0" />
      <path
         d="m -256.06808,223.60224 v 0.77514 q 0,0.68902 -0.39964,1.31947 -0.39618,0.63046 -1.13688,0.63046 -0.42719,0 -0.72347,-0.18604 -0.29283,-0.18948 -0.5581,-0.69246 -0.26183,-0.50643 -0.26183,-1.07143 v -0.77514 q 0,-0.68558 0.39619,-1.31603 0.39618,-0.6339 1.13688,-0.6339 0.42374,0 0.71658,0.18604 0.29628,0.18603 0.56155,0.69246 0.26872,0.50298 0.26872,1.07143 z m -0.70969,0 q 0,-0.57534 -0.3204,-1.00597 -0.18259,-0.23771 -0.51332,-0.23771 -0.32039,0 -0.52365,0.26182 -0.30662,0.39619 -0.30662,0.98186 v 0.77514 q 0,0.57878 0.32384,1.00597 0.17915,0.23771 0.51332,0.23771 0.31695,0 0.52021,-0.26183 0.30662,-0.39618 0.30662,-0.98185 z"
         style="font-style:normal;font-variant:normal;font-weight:bold;font-stretch:normal;font-size:medium;line-height:1.25;font-family:'Courier New';-inkscape-font-specification:'Courier New Bold';letter-spacing:0px;word-spacing:0px;fill:#000000;fill-opacity:1;stroke:none;stroke-width:0.26458332"
         id="path4529"
         inkscape:connector-curvature="0" />
    </g>
  </g>
</svg>
