<?xml version="1.0" encoding="UTF-8" standalone="no"?>
<!-- Created with Inkscape (http://www.inkscape.org/) -->

<svg
   xmlns:dc="http://purl.org/dc/elements/1.1/"
   xmlns:cc="http://creativecommons.org/ns#"
   xmlns:rdf="http://www.w3.org/1999/02/22-rdf-syntax-ns#"
   xmlns:svg="http://www.w3.org/2000/svg"
   xmlns="http://www.w3.org/2000/svg"
   xmlns:sodipodi="http://sodipodi.sourceforge.net/DTD/sodipodi-0.dtd"
   xmlns:inkscape="http://www.inkscape.org/namespaces/inkscape"
   width="210mm"
   height="297mm"
   viewBox="0 0 210 297"
   version="1.1"
   id="svg4570"
   inkscape:version="0.92.1 r15371"
   sodipodi:docname="ic_all_inclusive_15_24px.svg">
  <defs
     id="defs4564" />
  <sodipodi:namedview
     id="base"
     pagecolor="#ffffff"
     bordercolor="#666666"
     borderopacity="1.0"
     inkscape:pageopacity="0.0"
     inkscape:pageshadow="2"
     inkscape:zoom="0.98994949"
     inkscape:cx="248.44906"
     inkscape:cy="656.15858"
     inkscape:document-units="mm"
     inkscape:current-layer="layer1"
     showgrid="false"
     inkscape:window-width="1920"
     inkscape:window-height="1017"
     inkscape:window-x="-8"
     inkscape:window-y="-8"
     inkscape:window-maximized="1" />
  <metadata
     id="metadata4567">
    <rdf:RDF>
      <cc:Work
         rdf:about="">
        <dc:format>image/svg+xml</dc:format>
        <dc:type
           rdf:resource="http://purl.org/dc/dcmitype/StillImage" />
        <dc:title></dc:title>
      </cc:Work>
    </rdf:RDF>
  </metadata>
  <g
     inkscape:label="Layer 1"
     inkscape:groupmode="layer"
     id="layer1">
    <g
       transform="translate(335.16997,-111.60456)"
       id="g4550">
      <path
         d="m -273.4834,202.07315 v 3.8654 h 0.71314 q 0.25494,0 0.36173,0.0999 0.11025,0.0965 0.11025,0.25494 0,0.15503 -0.11025,0.25494 -0.10679,0.0965 -0.36173,0.0965 h -2.13251 q -0.25494,0 -0.36518,-0.0965 -0.1068,-0.0999 -0.1068,-0.25838 0,-0.15503 0.1068,-0.2515 0.11024,-0.0999 0.36518,-0.0999 h 0.71313 v -2.94556 l -0.63045,0.16536 q -0.15159,0.0413 -0.22738,0.0413 -0.13436,0 -0.23426,-0.1068 -0.0965,-0.1068 -0.0965,-0.26183 0,-0.14125 0.0723,-0.22049 0.0724,-0.0827 0.30317,-0.14469 z"
         style="font-style:normal;font-variant:normal;font-weight:bold;font-stretch:normal;font-size:medium;line-height:1.25;font-family:'Courier New';-inkscape-font-specification:'Courier New Bold';letter-spacing:0px;word-spacing:0px;fill:#000000;fill-opacity:1;stroke:none;stroke-width:0.26458332"
         id="path4520"
         inkscape:connector-curvature="0" />
      <path
         d="m -271.03602,202.89308 v 0.84061 q 0.39274,-0.12403 0.71314,-0.12403 0.65112,0 1.08176,0.44442 0.43063,0.44442 0.43063,1.14722 0,0.72347 -0.43753,1.13688 -0.43408,0.40996 -1.33325,0.40996 -0.79237,0 -1.25401,-0.29972 -0.26872,-0.17225 -0.26872,-0.39619 0,-0.14124 0.10335,-0.2446 0.1068,-0.1068 0.2515,-0.1068 0.12057,0 0.26182,0.11714 0.14125,0.11369 0.29628,0.15847 0.22049,0.0655 0.565,0.0655 0.64078,0 0.87505,-0.20326 0.23427,-0.20671 0.23427,-0.63045 0,-0.41686 -0.22738,-0.65457 -0.22393,-0.23771 -0.57877,-0.23771 -0.38241,0 -0.87161,0.24804 -0.11025,0.0586 -0.19293,0.0586 -0.15158,0 -0.25494,-0.11024 -0.0999,-0.11025 -0.0999,-0.28595 v -2.03949 h 2.16007 q 0.25494,0 0.36174,0.0999 0.11024,0.0965 0.11024,0.25494 0,0.15503 -0.11024,0.25494 -0.1068,0.0965 -0.36174,0.0965 z"
         style="font-style:normal;font-variant:normal;font-weight:bold;font-stretch:normal;font-size:medium;line-height:1.25;font-family:'Courier New';-inkscape-font-specification:'Courier New Bold';letter-spacing:0px;word-spacing:0px;fill:#000000;fill-opacity:1;stroke:none;stroke-width:0.26458332"
         id="path4522"
         inkscape:connector-curvature="0" />
    </g>
  </g>
</svg>
