<?xml version="1.0" encoding="UTF-8" standalone="no"?>
<!-- Created with Inkscape (http://www.inkscape.org/) -->

<svg
   xmlns:dc="http://purl.org/dc/elements/1.1/"
   xmlns:cc="http://creativecommons.org/ns#"
   xmlns:rdf="http://www.w3.org/1999/02/22-rdf-syntax-ns#"
   xmlns:svg="http://www.w3.org/2000/svg"
   xmlns="http://www.w3.org/2000/svg"
   xmlns:sodipodi="http://sodipodi.sourceforge.net/DTD/sodipodi-0.dtd"
   xmlns:inkscape="http://www.inkscape.org/namespaces/inkscape"
   width="210mm"
   height="297mm"
   viewBox="0 0 210 297"
   version="1.1"
   id="svg4570"
   inkscape:version="0.92.1 r15371"
   sodipodi:docname="ic_all_inclusive_45_24px.svg">
  <defs
     id="defs4564" />
  <sodipodi:namedview
     id="base"
     pagecolor="#ffffff"
     bordercolor="#666666"
     borderopacity="1.0"
     inkscape:pageopacity="0.0"
     inkscape:pageshadow="2"
     inkscape:zoom="0.98994949"
     inkscape:cx="248.44906"
     inkscape:cy="656.15858"
     inkscape:document-units="mm"
     inkscape:current-layer="layer1"
     showgrid="false"
     inkscape:window-width="1920"
     inkscape:window-height="1017"
     inkscape:window-x="-8"
     inkscape:window-y="-8"
     inkscape:window-maximized="1" />
  <metadata
     id="metadata4567">
    <rdf:RDF>
      <cc:Work
         rdf:about="">
        <dc:format>image/svg+xml</dc:format>
        <dc:type
           rdf:resource="http://purl.org/dc/dcmitype/StillImage" />
        <dc:title></dc:title>
      </cc:Work>
    </rdf:RDF>
  </metadata>
  <g
     inkscape:label="Layer 1"
     inkscape:groupmode="layer"
     id="layer1">
    <g
       transform="translate(348.0932,-109.63)"
       id="g4558">
      <path
         d="m -259.44671,231.1587 v 2.76297 q 0.22393,0 0.33073,0.0999 0.1068,0.0965 0.1068,0.2515 0,0.15503 -0.11024,0.25493 -0.1068,0.0999 -0.32729,0.0999 v 0.2825 q 0.22393,0 0.33073,0.0999 0.1068,0.0999 0.1068,0.25493 0,0.15503 -0.11024,0.25494 -0.1068,0.0965 -0.36174,0.0965 h -0.9474 q -0.25494,0 -0.36518,-0.0965 -0.1068,-0.0999 -0.1068,-0.25838 0,-0.15503 0.1068,-0.25149 0.11024,-0.0999 0.36518,-0.0999 h 0.27561 v -0.2825 h -1.91892 v -0.58911 l 1.69154,-2.8801 z m -0.70624,2.76297 v -1.73633 l -1.02319,1.73633 z"
         style="font-style:normal;font-variant:normal;font-weight:bold;font-stretch:normal;font-size:medium;line-height:1.25;font-family:'Courier New';-inkscape-font-specification:'Courier New Bold';letter-spacing:0px;word-spacing:0px;fill:#000000;fill-opacity:1;stroke:none;stroke-width:0.26458332"
         id="path4532"
         inkscape:connector-curvature="0" />
      <path
         d="m -257.80402,231.86494 v 0.84061 q 0.39274,-0.12403 0.71314,-0.12403 0.65112,0 1.08176,0.44442 0.43063,0.44442 0.43063,1.14722 0,0.72347 -0.43752,1.13688 -0.43409,0.40997 -1.33326,0.40997 -0.79237,0 -1.25401,-0.29973 -0.26872,-0.17225 -0.26872,-0.39618 0,-0.14125 0.10335,-0.2446 0.1068,-0.1068 0.2515,-0.1068 0.12057,0 0.26182,0.11713 0.14125,0.11369 0.29628,0.15847 0.22049,0.0655 0.565,0.0655 0.64078,0 0.87505,-0.20326 0.23427,-0.2067 0.23427,-0.63045 0,-0.41686 -0.22738,-0.65457 -0.22393,-0.23771 -0.57877,-0.23771 -0.38241,0 -0.87161,0.24805 -0.11025,0.0586 -0.19293,0.0586 -0.15158,0 -0.25494,-0.11024 -0.0999,-0.11024 -0.0999,-0.28594 v -2.0395 h 2.16007 q 0.25494,0 0.36174,0.0999 0.11024,0.0965 0.11024,0.25493 0,0.15503 -0.11024,0.25494 -0.1068,0.0965 -0.36174,0.0965 z"
         style="font-style:normal;font-variant:normal;font-weight:bold;font-stretch:normal;font-size:medium;line-height:1.25;font-family:'Courier New';-inkscape-font-specification:'Courier New Bold';letter-spacing:0px;word-spacing:0px;fill:#000000;fill-opacity:1;stroke:none;stroke-width:0.26458332"
         id="path4534"
         inkscape:connector-curvature="0" />
    </g>
  </g>
</svg>
