<?xml version="1.0" encoding="UTF-8" standalone="no"?>
<svg
   xmlns:dc="http://purl.org/dc/elements/1.1/"
   xmlns:cc="http://creativecommons.org/ns#"
   xmlns:rdf="http://www.w3.org/1999/02/22-rdf-syntax-ns#"
   xmlns:svg="http://www.w3.org/2000/svg"
   xmlns="http://www.w3.org/2000/svg"
   id="svg93"
   version="1.1"
   viewBox="0 0 24 24"
   height="24"
   width="24">
  <metadata
     id="metadata99">
    <rdf:RDF>
      <cc:Work
         rdf:about="">
        <dc:format>image/svg+xml</dc:format>
        <dc:type
           rdf:resource="http://purl.org/dc/dcmitype/StillImage" />
        <dc:title></dc:title>
      </cc:Work>
    </rdf:RDF>
  </metadata>
  <defs
     id="defs97" />
  <path
     id="path3879-9"
     d="M 6.7261935,21.684032 C 3.9110203,20.166575 2.4390852,18.621147 2.073419,16.79895 1.968234,16.274783 1.9770693,15.383532 2.0934993,14.772072 2.2865703,13.758172 2.494659,13.254979 3.3982265,11.617023 4.3855186,9.8272891 4.6204401,9.3102051 4.813943,8.5008952 4.861623,8.3014487 4.907197,8.1325332 4.9151936,8.1255276 c 0.024597,-0.021532 0.3614942,0.7596574 0.4546195,1.0541465 0.111634,0.3530078 0.2133654,0.9357199 0.2630803,1.5068419 0.021361,0.245434 0.051988,0.464853 0.06804,0.487599 0.074826,0.105986 0.2051564,0.0071 0.6402347,-0.485624 C 7.9674002,8.8466712 9.0587346,7.2314202 9.6929589,5.7275992 10.195997,4.5348416 10.374108,3.685179 10.348343,2.6011803 c -0.0092,-0.3847931 0.0015,-0.6020959 0.02937,-0.6015935 0.06668,0.0012 0.791533,0.346294 1.137851,0.5417144 0.506063,0.2855598 1.146512,0.7585502 1.680004,1.2407326 1.415032,1.2789386 2.436514,2.8636424 3.195357,4.9572018 0.207418,0.5722432 0.24241,0.6405708 0.328052,0.6405708 0.219882,0 0.637975,-0.5865722 0.810753,-1.1374654 0.125472,-0.4000645 0.133802,-1.3727677 0.01547,-1.8072461 -0.140711,-0.5166692 -0.15381,-0.5101576 0.267322,-0.1328994 1.108038,0.9926027 2.11835,2.2555667 2.874943,3.593891 1.136849,2.0109495 1.526345,3.8189095 1.202872,5.5834795 -0.367932,2.007098 -1.842605,3.941256 -4.173102,5.473376 -0.725882,0.477209 -1.707291,1.037645 -1.750635,0.999702 -0.01094,-0.0096 0.02702,-0.110368 0.0843,-0.224027 0.324068,-0.642986 0.632918,-1.722447 0.731273,-2.555857 0.06485,-0.549536 0.02735,-1.823991 -0.06986,-2.37381 -0.39584,-2.239031 -1.593574,-4.329247 -3.290978,-5.743238 -0.528942,-0.440626 -1.122822,-0.843611 -1.219239,-0.827333 -0.07069,0.01193 -0.07577,0.06993 -0.06293,0.719933 0.01477,0.747934 -0.0398,1.230833 -0.211165,1.868948 -0.232836,0.867027 -0.655174,1.752853 -1.145355,2.402299 l -0.273873,0.362859 -0.02815,-0.567706 c -0.0401,-0.808708 -0.167758,-1.268088 -0.5084582,-1.829726 -0.130465,-0.21507 -0.18256,-0.267701 -0.2649717,-0.267701 -0.093287,0 -0.1157076,0.03982 -0.2476184,0.439794 -0.3280301,0.994664 -0.7736386,1.83933 -1.4867023,2.818099 -0.5705326,0.783129 -0.7994127,1.150389 -0.9980829,1.601508 -0.5314118,1.206679 -0.431359,2.575288 0.2982632,4.079902 C 7.3112899,21.935467 7.3357818,22 7.3274704,22 7.3192055,22 7.0485773,21.857815 6.7261795,21.684032 Z"
     style="fill:#000000;stroke-width:0.04087478" />
</svg>
