<?xml version="1.0" encoding="UTF-8" standalone="no"?>
<svg
   xmlns:dc="http://purl.org/dc/elements/1.1/"
   xmlns:cc="http://creativecommons.org/ns#"
   xmlns:rdf="http://www.w3.org/1999/02/22-rdf-syntax-ns#"
   xmlns:svg="http://www.w3.org/2000/svg"
   xmlns="http://www.w3.org/2000/svg"
   id="svg4554"
   version="1.1"
   viewBox="0 0 24 24"
   height="24"
   width="24">
  <metadata
     id="metadata4560">
    <rdf:RDF>
      <cc:Work
         rdf:about="">
        <dc:format>image/svg+xml</dc:format>
        <dc:type
           rdf:resource="http://purl.org/dc/dcmitype/StillImage" />
        <dc:title></dc:title>
      </cc:Work>
    </rdf:RDF>
  </metadata>
  <defs
     id="defs4558" />
  <path
     id="path5116"
     d="m 3.5062102,21.503337 c 0.732514,-0.11287 1.110674,-0.248495 1.630464,-0.831888 0.159279,-0.208821 0.606984,-1.302068 0.99491,-2.429437 l 0.70531,-2.049759 1.021872,-0.07471 c 3.2524908,-0.237785 5.7939298,-2.91877 5.7939298,-6.11207 V 9.2455806 h 2.657857 2.657857 v -2.839075 -2.839075 h -6.15545 c -4.0270908,0 -6.3768108,0.04616 -6.7956528,0.133507 -1.149599,0.239733 -2.139306,0.798877 -3.058511,1.727927 -0.466261,0.471256 -0.994533,1.132725 -1.173938,1.469932 -1.11331006,2.092561 -0.86346703,5.0888944 0.56598,6.7876934 l 0.309446,0.367757 -0.786001,2.289835 c -0.98444303,2.867942 -1.01865103,3.56329 -0.216662,4.404011 0.510473,0.423257 0.46751,0.505895 1.848589,0.755244 z m 2.783412,-9.591544 c -0.229024,-0.113624 -0.579949,-0.408645 -0.779834,-0.655614 -0.298207,-0.36844 -0.372126,-0.585533 -0.411864,-1.209568 -0.09517,-1.4946324 0.826901,-2.4923944 2.303317,-2.4923944 1.282414,0 2.2646672,0.995598 2.2646672,2.2954226 0,1.7874398 -1.7614382,2.8632828 -3.3762862,2.0621538 z M 23.076012,8.3998986 v -0.483247 l -1.449744,-0.305948 -1.449739,0.305948 v 0.483247 0.483248 l 1.449739,-0.3710764 1.449744,0.3710764 z m -0.02327,-1.96319 -0.03717,-0.51345 -1.41954,-0.296277 -1.419539,0.228203 v 0.547487 0.547487 l 1.456689,-0.349655 1.456685,0.349655 z m 0.02327,-2.023596 v -0.483247 l -1.493451,-0.218534 -1.406032,0.218534 v 0.483247 0.483247 l 1.449739,-0.2765219 1.449744,0.2765219 z"
     style="fill:#000000;stroke-width:0.12081172" />
</svg>
