<?xml version="1.0" encoding="UTF-8" standalone="no"?>
<svg
   xmlns:dc="http://purl.org/dc/elements/1.1/"
   xmlns:cc="http://creativecommons.org/ns#"
   xmlns:rdf="http://www.w3.org/1999/02/22-rdf-syntax-ns#"
   xmlns:svg="http://www.w3.org/2000/svg"
   xmlns="http://www.w3.org/2000/svg"
   xmlns:sodipodi="http://sodipodi.sourceforge.net/DTD/sodipodi-0.dtd"
   xmlns:inkscape="http://www.inkscape.org/namespaces/inkscape"
   id="svg5655"
   version="1.1"
   viewBox="0 0 24 24"
   height="24"
   width="24"
   sodipodi:docname="ic_microwave_24px.svg"
   inkscape:version="0.92.1 r15371">
  <sodipodi:namedview
     pagecolor="#ffffff"
     bordercolor="#666666"
     borderopacity="1"
     objecttolerance="10"
     gridtolerance="10"
     guidetolerance="10"
     inkscape:pageopacity="0"
     inkscape:pageshadow="2"
     inkscape:window-width="1920"
     inkscape:window-height="1017"
     id="namedview4489"
     showgrid="false"
     inkscape:zoom="24.571961"
     inkscape:cx="16.469931"
     inkscape:cy="9.0319661"
     inkscape:window-x="-8"
     inkscape:window-y="-8"
     inkscape:window-maximized="1"
     inkscape:current-layer="svg5655" />
  <metadata
     id="metadata5661">
    <rdf:RDF>
      <cc:Work
         rdf:about="">
        <dc:format>image/svg+xml</dc:format>
        <dc:type
           rdf:resource="http://purl.org/dc/dcmitype/StillImage" />
        <dc:title />
      </cc:Work>
    </rdf:RDF>
  </metadata>
  <defs
     id="defs5659" />
  <path
     id="path5653"
     d="m 2.0269396,4.009226 -0.013457,14.0492 C 2.0124294,19.158425 2.89,20 4,20 h 16 c 1.11,0 2,-0.9 2,-2 V 6 C 22,4.89 21.11,4 20,4 4,4.0677966 9.8919738,3.9554601 2.0269396,4.009226 Z M 19.954293,17.635079 c -1.239933,-0.0053 -1.193738,0.0054 -1.217519,-1.734452 -0.02241,-1.639851 -0.02242,-1.622311 1.139706,-1.630468 1.336723,-0.0094 1.336723,-0.0094 1.309961,1.645095 -0.02791,1.725235 0.02676,1.725253 -1.232148,1.719825 z m -2.183107,0.424243 H 16.627119 V 7.40678 H 15.508475 V 18.059322 H 3.7372881 L 3.7588488,5.525424 17.771186,5.5264216 Z"
     inkscape:connector-curvature="0" />
</svg>
