<?xml version="1.0" encoding="UTF-8" standalone="no"?>
<svg
   xmlns:dc="http://purl.org/dc/elements/1.1/"
   xmlns:cc="http://creativecommons.org/ns#"
   xmlns:rdf="http://www.w3.org/1999/02/22-rdf-syntax-ns#"
   xmlns:svg="http://www.w3.org/2000/svg"
   xmlns="http://www.w3.org/2000/svg"
   xmlns:sodipodi="http://sodipodi.sourceforge.net/DTD/sodipodi-0.dtd"
   xmlns:inkscape="http://www.inkscape.org/namespaces/inkscape"
   width="24"
   height="24"
   viewBox="0 0 24 24"
   version="1.1"
   id="svg4487"
   sodipodi:docname="ic_mom_24px.svg"
   inkscape:version="0.92.1 r15371">
  <metadata
     id="metadata4493">
    <rdf:RDF>
      <cc:Work
         rdf:about="">
        <dc:format>image/svg+xml</dc:format>
        <dc:type
           rdf:resource="http://purl.org/dc/dcmitype/StillImage" />
      </cc:Work>
    </rdf:RDF>
  </metadata>
  <defs
     id="defs4491" />
  <sodipodi:namedview
     pagecolor="#ffffff"
     bordercolor="#666666"
     borderopacity="1"
     objecttolerance="10"
     gridtolerance="10"
     guidetolerance="10"
     inkscape:pageopacity="0"
     inkscape:pageshadow="2"
     inkscape:window-width="1920"
     inkscape:window-height="1017"
     id="namedview4489"
     showgrid="false"
     inkscape:zoom="8.6875"
     inkscape:cx="37.743841"
     inkscape:cy="-11.423866"
     inkscape:window-x="-8"
     inkscape:window-y="-8"
     inkscape:window-maximized="1"
     inkscape:current-layer="svg4487" />
  <path
     style="fill:#000000;stroke-width:0.02272424"
     d="M 10.182742,22.814026 C 9.9339077,22.765856 9.7107932,22.610451 9.555513,22.37713 L 9.457079,22.229227 9.448179,19.953336 C 9.443249,18.701595 9.433383,17.564304 9.426146,17.426019 l -0.013161,-0.251425 -1.2667639,-0.0087 c -0.9322392,-0.0064 -1.2901428,-0.0162 -1.3552949,-0.03695 -0.20121,-0.0641 -0.4075503,-0.355679 -0.3700338,-0.522897 0.030861,-0.137564 0.6402427,-1.771071 1.5378414,-4.122344 1.1176995,-2.9278309 1.6193578,-4.2793766 1.6193578,-4.3627968 0,-0.074092 -0.1228351,-0.2043623 -0.2232975,-0.2368201 C 9.2378618,7.8462873 9.1379346,7.9013419 9.0709941,8.040439 8.9966926,8.1948358 8.5437589,9.3219817 8.211607,10.179079 7.0314541,13.224399 6.9331628,13.464775 6.8181014,13.586975 6.6844107,13.728961 6.5325301,13.78618 6.2937961,13.784496 6.1493978,13.783477 6.0639889,13.770058 5.9657203,13.732938 5.8021356,13.671151 5.5906082,13.485544 5.515098,13.337529 5.3760866,13.065042 5.4605841,12.81496 6.8102175,9.5045587 7.9562282,6.6936012 7.9233863,6.7638054 8.2351479,6.4586024 8.5183255,6.181381 8.8955148,5.9745437 9.2532715,5.9002974 9.3490726,5.8804158 10.0028,5.8734053 11.759967,5.8734053 h 2.377095 l 0.247139,0.1167729 c 0.342999,0.1620685 0.539898,0.2975722 0.753699,0.5186865 0.212343,0.2196072 0.257217,0.3031452 0.612781,1.1407718 0.53998,1.2720694 1.663283,4.0519415 1.98062,4.9014995 0.135178,0.36189 0.142214,0.390602 0.132227,0.539615 -0.02423,0.361584 -0.282999,0.632936 -0.67571,0.708571 -0.224484,0.04325 -0.507949,-0.04127 -0.654036,-0.194964 -0.136863,-0.143997 -0.316919,-0.574294 -1.179268,-2.818211 -0.896652,-2.3332816 -1.086461,-2.7773739 -1.23267,-2.8841485 l -0.06118,-0.044678 -0.103428,0.049017 c -0.116169,0.055054 -0.183911,0.1394856 -0.180769,0.2253048 0.0049,0.1316868 0.686554,1.9828007 1.830483,4.9703267 0.791863,2.068052 1.320834,3.498135 1.320421,3.569777 -4.16e-4,0.07199 -0.108234,0.266749 -0.191494,0.34591 -0.14702,0.13978 -0.130516,0.138185 -1.533215,0.148138 l -1.277074,0.0091 -0.01658,2.376031 c -0.0091,1.306816 -0.02493,2.44258 -0.03514,2.523919 -0.07096,0.565108 -0.682157,0.90134 -1.270483,0.69891 -0.180407,-0.06207 -0.323026,-0.168515 -0.467397,-0.348829 l -0.123353,-0.154065 -2.2e-5,-1.520989 c -2e-5,-0.836544 -0.0069,-1.983876 -0.01523,-2.54963 l -0.01521,-1.02864 h -0.317792 -0.317794 l -9.2e-4,2.017935 c -0.001,2.362538 -0.01729,2.923107 -0.09016,3.112939 -0.14562,0.379325 -0.610589,0.601061 -1.072786,0.511595 z m 2.167772,-7.503378 c 0.419264,-0.141248 0.720514,-0.318985 0.996838,-0.588133 0.322805,-0.314423 0.552694,-0.730731 0.645096,-1.168207 0.06004,-0.284243 0.04839,-0.754374 -0.02542,-1.025687 -0.06256,-0.229976 -0.241413,-0.588222 -0.387262,-0.775696 -0.143802,-0.184844 -0.437133,-0.459371 -0.622526,-0.582621 -0.196412,-0.130574 -0.484064,-0.261725 -0.703448,-0.320727 -0.154784,-0.04163 -0.245263,-0.04957 -0.574177,-0.05044 -0.422773,-0.0011 -0.584373,0.02792 -0.930527,0.167198 -0.533304,0.214572 -1.0263915,0.679936 -1.2537815,1.183289 -0.5196426,1.150285 -0.020009,2.473674 1.1427955,3.026922 0.405763,0.193058 0.535022,0.217538 1.110414,0.210294 0.372065,-0.0047 0.400397,-0.0082 0.602002,-0.07619 z m -1.95345,-1.74362 c -0.7918516,-0.750618 -0.4237486,-1.808775 0.292912,-1.854591 0.788298,-0.12465 0.959125,0.59411 0.959125,0.59411 0,0 0.194104,-0.696443 0.916371,-0.625505 0.654793,-0.05679 1.047792,0.934926 0.33448,1.81294 -0.628181,0.631513 -1.254637,1.178018 -1.254637,1.178018 0,0 -0.550734,-0.4279 -1.248251,-1.104972 z M 10.737959,5.2279653 C 10.353361,5.0311097 10.243864,4.9590778 10.031342,4.7631197 9.8113788,4.5603005 9.6638604,4.3641514 9.5304766,4.0971416 9.3525301,3.7409234 9.3174566,3.583127 9.315581,3.1303319 9.3136897,2.6753426 9.3513108,2.5031749 9.5323872,2.1378448 9.7756147,1.6471309 10.147956,1.2782844 10.646516,1.034171 c 0.772734,-0.37835881 1.733188,-0.28013032 2.454036,0.2509821 0.987916,0.7278855 1.223124,2.0887795 0.535546,3.0986194 -0.243263,0.3572781 -0.518774,0.5900588 -0.945935,0.7992274 -0.359216,0.1758966 -0.402307,0.1839559 -1.056487,0.1975837 l -0.574177,0.011962 z"
     id="path4506"
     inkscape:connector-curvature="0"
     sodipodi:nodetypes="cccccccccssccsscccsccsccsssccccccccscccccccccccccccccccsscscccccsccccccccccccccccsscccc" />
</svg>
