<?xml version="1.0" encoding="UTF-8" standalone="no"?>
<svg
   xmlns:dc="http://purl.org/dc/elements/1.1/"
   xmlns:cc="http://creativecommons.org/ns#"
   xmlns:rdf="http://www.w3.org/1999/02/22-rdf-syntax-ns#"
   xmlns:svg="http://www.w3.org/2000/svg"
   xmlns="http://www.w3.org/2000/svg"
   xmlns:sodipodi="http://sodipodi.sourceforge.net/DTD/sodipodi-0.dtd"
   xmlns:inkscape="http://www.inkscape.org/namespaces/inkscape"
   width="24"
   height="24"
   viewBox="0 0 24 24"
   version="1.1"
   id="svg4500"
   sodipodi:docname="ic_shaver_24px.svg"
   inkscape:version="0.92.1 r15371">
  <metadata
     id="metadata4506">
    <rdf:RDF>
      <cc:Work
         rdf:about="">
        <dc:format>image/svg+xml</dc:format>
        <dc:type
           rdf:resource="http://purl.org/dc/dcmitype/StillImage" />
      </cc:Work>
    </rdf:RDF>
  </metadata>
  <defs
     id="defs4504" />
  <sodipodi:namedview
     pagecolor="#ffffff"
     bordercolor="#666666"
     borderopacity="1"
     objecttolerance="10"
     gridtolerance="10"
     guidetolerance="10"
     inkscape:pageopacity="0"
     inkscape:pageshadow="2"
     inkscape:window-width="1920"
     inkscape:window-height="1017"
     id="namedview4502"
     showgrid="false"
     inkscape:zoom="6.9532167"
     inkscape:cx="62.52893"
     inkscape:cy="-27.865712"
     inkscape:window-x="-8"
     inkscape:window-y="-8"
     inkscape:window-maximized="1"
     inkscape:current-layer="svg4500" />
  <path
     fill="#607D8B"
     d="M8.55 12c-1.07-.71-2.25-1.27-3.53-1.61 1.28.34 2.46.9 3.53 1.61zm10.43-1.61c-1.29.34-2.49.91-3.57 1.64 1.08-.73 2.28-1.3 3.57-1.64z"
     id="path4496" />
  <path
     style="fill:#000000;stroke-width:0.0492056"
     d="M 6.973486,17.638476 C 6.5493722,15.445672 6.4086209,14.041798 6.406152,11.979833 6.4043206,10.487391 6.4514199,9.7875853 6.6030087,9.0521 6.6808445,8.6744518 6.9684795,8.0388119 7.2097599,7.7112479 L 7.3637984,7.5021244 h 4.4770916 4.477092 l 0.154097,0.2091235 c 0.60354,0.8190617 0.801381,1.8624901 0.800022,4.2193791 -10e-4,1.800892 -0.08226,3.838679 -0.442578,5.71506 -0.44993,2.190041 -0.983596,4.829563 -2.347241,5.469525 -2.017829,0.94697 -3.489938,0.76942 -5.152444,0.0014 C 8.038149,22.51985 7.3940682,19.750349 6.973486,17.63842 Z m 5.338074,-1.864419 c 0.287697,-0.130672 0.535019,-0.365207 0.667871,-0.633343 0.11282,-0.227706 0.115897,-0.270179 0.131774,-1.819425 0.01809,-1.765807 -0.0065,-1.996109 -0.252686,-2.357842 -0.546276,-0.802943 -1.740253,-0.676765 -2.167852,0.229096 -0.100429,0.212772 -0.104517,0.289691 -0.104517,1.968224 0,1.931764 -0.0027,1.913271 0.325624,2.287136 0.338101,0.385075 0.954071,0.528598 1.399788,0.326154 z m -0.743537,-0.864254 c -0.212212,-0.212212 -0.149081,-0.55288 0.123369,-0.665733 0.174966,-0.07248 0.415622,5.01e-4 0.495818,0.150351 0.146677,0.274069 -0.05044,0.636159 -0.34632,0.636159 -0.09587,0 -0.196735,-0.04465 -0.272867,-0.120777 z m 0.100647,-1.609032 c -0.207201,-0.113335 -0.221425,-0.177694 -0.221425,-1.001929 0,-0.782525 0.0017,-0.795563 0.122613,-0.909099 0.159532,-0.149874 0.382532,-0.149874 0.542063,0 0.120612,0.113312 0.122614,0.127839 0.122614,0.889876 0,0.426079 -0.01376,0.810532 -0.03056,0.854342 -0.03265,0.08506 -0.266927,0.224612 -0.372937,0.222132 -0.03518,-8.18e-4 -0.108239,-0.02572 -0.162364,-0.05532 z M 5.5609488,8.156169 C 5.4690392,8.0558196 5.3442638,7.8731467 5.283682,7.750223 5.1735531,7.526776 5.1735302,7.526122 5.1735302,4.7466106 V 1.966494 L 5.2939666,1.7217493 C 5.5596972,1.1817434 6.0923882,0.82847202 6.7203006,0.77582928 7.2258401,0.73344918 7.2155635,0.71480418 7.2155635,1.6740824 c 0,0.4414652 0.021999,0.8605332 0.048886,0.9312615 0.0553,0.1454497 0.339536,0.2877879 0.4773176,0.2390299 C 7.7906421,2.8270788 7.8804479,2.7680848 7.9413406,2.7132716 8.048022,2.6172396 8.052053,2.5827282 8.052053,1.7646099 c 0,-1.00004312 0.0016,-1.00365282 0.436525,-1.00365282 0.155033,0 0.308448,0.0265693 0.340924,0.0590442 0.04089,0.0408903 0.05904,0.29578932 0.05904,0.82915232 0,0.4476948 0.02338,0.8371974 0.05586,0.9303589 0.06719,0.1927456 0.318187,0.3211455 0.495346,0.2534021 0.260628,-0.099662 0.277513,-0.1629047 0.294273,-1.1022436 0.01271,-0.7122799 0.02935,-0.88373123 0.08943,-0.92163839 0.106166,-0.0669909 0.60921,-0.0588623 0.679037,0.010994 0.04095,0.0409492 0.05904,0.29777199 0.05904,0.83807589 0,0.8948395 0.045,1.0749064 0.28994,1.1602956 0.102056,0.035579 0.198245,0.037504 0.28924,0.00571 0.252041,-0.087867 0.280444,-0.1928769 0.298504,-1.1036868 0.0095,-0.478369 0.03839,-0.86282862 0.06753,-0.89800288 0.06753,-0.0815233 0.600729,-0.0815233 0.668259,0 0.02913,0.0351784 0.05805,0.41963388 0.06753,0.89800288 0.01811,0.9136222 0.04607,1.0156878 0.302707,1.1051513 0.207313,0.07227 0.447888,-0.041785 0.519114,-0.2461038 0.03247,-0.093157 0.05586,-0.4826635 0.05586,-0.9303583 0,-0.5333636 0.01815,-0.78825731 0.05904,-0.82915292 0.06983,-0.0698309 0.572874,-0.0779501 0.679037,-0.010994 0.06008,0.0379048 0.07671,0.20935852 0.08943,0.92163842 0.01676,0.9393389 0.03365,1.0025811 0.294273,1.102243 0.177159,0.067747 0.428154,-0.060658 0.495346,-0.2534016 0.03248,-0.093158 0.05586,-0.4826641 0.05586,-0.9303588 0,-0.533363 0.01815,-0.78825733 0.05904,-0.82915294 0.03247,-0.0324755 0.18589,-0.0590436 0.340923,-0.0590436 0.434955,0 0.436525,0.003651 0.436525,1.00365284 0,0.8181177 0.004,0.8526307 0.110713,0.9486617 0.06089,0.054805 0.150701,0.1138044 0.199573,0.1311021 0.137782,0.048763 0.422018,-0.093582 0.477317,-0.2390304 0.02689,-0.070724 0.0489,-0.4897957 0.0489,-0.9312609 0,-0.95927596 -0.0103,-0.94063621 0.495261,-0.89825314 0.627913,0.0526439 1.160604,0.40591344 1.426334,0.94592004 l 0.120437,0.2447441 v 2.7801191 2.7801158 l -0.11576,0.2203174 C 18.267432,7.9849466 18.069102,8.2411633 17.961502,8.3037273 17.835289,8.3771084 17.716958,8.2475002 17.486673,7.7836112 17.329145,7.4662848 17.156534,7.2120939 16.941108,6.9801899 L 16.626005,6.6410265 H 11.842035 7.0580644 L 6.7719948,6.9453783 C 6.4872823,7.2482861 6.2139755,7.6659676 6.08572,7.9941797 6.002078,8.2082343 5.8938835,8.3386187 5.7999127,8.3386187 c -0.039519,0 -0.1470497,-0.082107 -0.2389639,-0.1824497 z M 16.308726,4.8436598 c 0.216358,-0.201568 0.171647,-0.5414457 -0.08853,-0.6730496 -0.179658,-0.090867 -8.5789407,-0.090867 -8.7585972,0 -0.2601848,0.1316039 -0.3048949,0.4714816 -0.088532,0.6730496 0.1059148,0.098666 0.155267,0.099777 4.4678362,0.099777 4.312568,0 4.361924,-0.0011 4.467835,-0.099777 z"
     id="path5066"
     inkscape:connector-curvature="0"
     sodipodi:nodetypes="ccssccccccssccccccsscccccscccccscccccscccscccsssscccccsccccccccscccccscsscccscccccscsccccscscccccsccc" />
</svg>
