<?xml version="1.0" encoding="UTF-8" standalone="no"?>
<svg
   xmlns:dc="http://purl.org/dc/elements/1.1/"
   xmlns:cc="http://creativecommons.org/ns#"
   xmlns:rdf="http://www.w3.org/1999/02/22-rdf-syntax-ns#"
   xmlns:svg="http://www.w3.org/2000/svg"
   xmlns="http://www.w3.org/2000/svg"
   xmlns:sodipodi="http://sodipodi.sourceforge.net/DTD/sodipodi-0.dtd"
   xmlns:inkscape="http://www.inkscape.org/namespaces/inkscape"
   width="24"
   height="24"
   viewBox="0 0 24 24"
   version="1.1"
   id="svg6236"
   sodipodi:docname="ic_shaker_24px.svg"
   inkscape:version="0.92.1 r15371">
  <metadata
     id="metadata6242">
    <rdf:RDF>
      <cc:Work
         rdf:about="">
        <dc:format>image/svg+xml</dc:format>
        <dc:type
           rdf:resource="http://purl.org/dc/dcmitype/StillImage" />
      </cc:Work>
    </rdf:RDF>
  </metadata>
  <defs
     id="defs6240" />
  <sodipodi:namedview
     pagecolor="#ffffff"
     bordercolor="#666666"
     borderopacity="1"
     objecttolerance="10"
     gridtolerance="10"
     guidetolerance="10"
     inkscape:pageopacity="0"
     inkscape:pageshadow="2"
     inkscape:window-width="1920"
     inkscape:window-height="1017"
     id="namedview6238"
     showgrid="false"
     inkscape:zoom="13.906433"
     inkscape:cx="14.243327"
     inkscape:cy="15.661344"
     inkscape:window-x="-8"
     inkscape:window-y="-8"
     inkscape:window-maximized="1"
     inkscape:current-layer="svg6236" />
  <g
     id="g6865">
    <path
       id="path6787"
       d="M 7.1679688 8.2949219 A 3.9145255 4.0249176 0 0 0 3.2539062 12.318359 A 3.9145255 4.0249176 0 0 0 7.1679688 16.34375 A 3.9145255 4.0249176 0 0 0 11.083984 12.318359 A 3.9145255 4.0249176 0 0 0 7.1679688 8.2949219 z M 4.0175781 12.736328 L 7.1191406 12.736328 L 10.220703 12.736328 A 3.1016953 2.8983052 0 0 1 7.1191406 15.634766 A 3.1016953 2.8983052 0 0 1 4.0175781 12.736328 z "
       style="opacity:1;fill:#000000;fill-opacity:1;stroke:none;stroke-width:2.18183327;stroke-linecap:square;stroke-linejoin:miter;stroke-miterlimit:4;stroke-dasharray:2.18183338, 17.45466703;stroke-dashoffset:0;stroke-opacity:1" />
    <path
       id="path6787-6"
       d="M 12.267578 0.609375 A 3.9145255 4.0249176 0 0 0 8.3535156 4.6347656 A 3.9145255 4.0249176 0 0 0 12.267578 8.6601562 A 3.9145255 4.0249176 0 0 0 16.181641 4.6347656 A 3.9145255 4.0249176 0 0 0 12.267578 0.609375 z M 12.304688 1.296875 A 3.1016953 2.8983052 0 0 1 15.40625 4.1953125 L 12.304688 4.1953125 L 9.203125 4.1953125 A 3.1016953 2.8983052 0 0 1 12.304688 1.296875 z "
       style="opacity:1;fill:#000000;fill-opacity:1;stroke:none;stroke-width:2.18183327;stroke-linecap:square;stroke-linejoin:miter;stroke-miterlimit:4;stroke-dasharray:2.18183338, 17.45466703;stroke-dashoffset:0;stroke-opacity:1" />
    <path
       id="path6787-1"
       d="M 17.339844 8.2949219 A 3.9145255 4.0249176 0 0 0 13.425781 12.318359 A 3.9145255 4.0249176 0 0 0 17.339844 16.34375 A 3.9145255 4.0249176 0 0 0 21.253906 12.318359 A 3.9145255 4.0249176 0 0 0 17.339844 8.2949219 z M 14.289062 12.583984 L 17.390625 12.583984 L 20.492188 12.583984 A 3.1016953 2.8983052 0 0 1 17.390625 15.482422 A 3.1016953 2.8983052 0 0 1 14.289062 12.583984 z "
       style="opacity:1;fill:#000000;fill-opacity:1;stroke:none;stroke-width:2.18183327;stroke-linecap:square;stroke-linejoin:miter;stroke-miterlimit:4;stroke-dasharray:2.18183338, 17.45466703;stroke-dashoffset:0;stroke-opacity:1" />
    <rect
       y="9.8644066"
       x="11.708744"
       height="13.220339"
       width="1.118644"
       id="rect6810"
       style="opacity:1;fill:#000000;fill-opacity:1;stroke:none;stroke-width:2.19770074;stroke-linecap:square;stroke-linejoin:miter;stroke-miterlimit:4;stroke-dasharray:2.19770067, 17.5816053;stroke-dashoffset:0;stroke-opacity:1" />
  </g>
</svg>
