<?xml version="1.0" encoding="UTF-8" standalone="no"?>
<svg
   xmlns:dc="http://purl.org/dc/elements/1.1/"
   xmlns:cc="http://creativecommons.org/ns#"
   xmlns:rdf="http://www.w3.org/1999/02/22-rdf-syntax-ns#"
   xmlns:svg="http://www.w3.org/2000/svg"
   xmlns="http://www.w3.org/2000/svg"
   xmlns:sodipodi="http://sodipodi.sourceforge.net/DTD/sodipodi-0.dtd"
   xmlns:inkscape="http://www.inkscape.org/namespaces/inkscape"
   width="24"
   height="24"
   viewBox="0 0 24 24"
   version="1.1"
   id="svg5122"
   sodipodi:docname="ic_vacuumcleaner_24px.svg"
   inkscape:version="0.92.1 r15371">
  <metadata
     id="metadata5128">
    <rdf:RDF>
      <cc:Work
         rdf:about="">
        <dc:format>image/svg+xml</dc:format>
        <dc:type
           rdf:resource="http://purl.org/dc/dcmitype/StillImage" />
      </cc:Work>
    </rdf:RDF>
  </metadata>
  <defs
     id="defs5126" />
  <sodipodi:namedview
     pagecolor="#ffffff"
     bordercolor="#666666"
     borderopacity="1"
     objecttolerance="10"
     gridtolerance="10"
     guidetolerance="10"
     inkscape:pageopacity="0"
     inkscape:pageshadow="2"
     inkscape:window-width="1920"
     inkscape:window-height="1017"
     id="namedview5124"
     showgrid="false"
     showguides="true"
     inkscape:guide-bbox="true"
     inkscape:zoom="11.313709"
     inkscape:cx="-19.259745"
     inkscape:cy="9.840481"
     inkscape:window-x="-8"
     inkscape:window-y="-8"
     inkscape:window-maximized="1"
     inkscape:current-layer="svg5122" />
  <path
     style="fill:#000000;stroke-width:0.02245776"
     d="m 11.575354,22.928533 c -0.405698,-0.01521 -0.45021,-0.02097 -0.536997,-0.06945 -0.139236,-0.07778 -0.188777,-0.156285 -0.186779,-0.295988 0.0021,-0.148188 0.06693,-0.276649 0.324916,-0.643954 0.512194,-0.729249 0.7596,-1.306738 0.90921,-2.122259 0.0497,-0.270916 0.06861,-0.969939 0.03503,-1.295005 -0.142562,-1.380122 -0.808662,-2.618944 -1.859011,-3.457413 -0.5505118,-0.43946 -1.2443418,-0.785949 -1.9328998,-0.965263 -0.25233,-0.06571 -0.292174,-0.0695 -0.926177,-0.08816 -1.117804,-0.03289 -1.186103,-0.03809 -1.313955,-0.100118 -0.238876,-0.115888 -0.24323,-0.152144 -0.242719,-2.021634 4.23e-4,-1.545276 0.01118,-1.765233 0.09571,-1.956318 0.05715,-0.129202 0.292319,-0.3746175 0.413602,-0.4316275 0.153623,-0.07222 0.343861,-0.09103 1.208098,-0.119516 l 0.82324,-0.02713 0.01356,-0.304746 c 0.04041,-0.907632 0.05296,-1.048311 0.104106,-1.167218 0.03113,-0.07235 0.09234,-0.15401 0.163246,-0.21776 0.256835,-0.230917 0.285897,-0.235715 1.5086408,-0.249094 0.55583,-0.0061 1.260469,-8.48e-4 1.565867,0.01161 0.511304,0.02088 0.563561,0.02682 0.660034,0.075 0.197,0.09839 0.388548,0.303871 0.45712,0.490376 0.01967,0.0535 0.03336,0.286636 0.04286,0.729878 l 0.01396,0.651274 0.842166,0.0148 c 0.463191,0.0082 0.897658,0.02114 0.965484,0.02891 0.271954,0.03109 0.538626,0.234439 0.703663,0.5365645 l 0.08389,0.153577 0.01266,5.213828 c 0.0074,3.054931 0.0039,5.56267 -0.0086,6.056296 l -0.02125,0.842469 -0.06505,0.134444 c -0.09004,0.18607 -0.327428,0.420889 -0.513571,0.507996 -0.141436,0.06619 -0.152474,0.06764 -0.667356,0.08764 -0.601719,0.02338 -2.023866,0.0223 -2.672697,-0.002 z m -4.8833368,-0.06513 c -0.420378,-0.03229 -0.75892,-0.124009 -1.175816,-0.318545 -1.085042,-0.506311 -1.941093,-1.573926 -2.172068,-2.708874 -0.05729,-0.281536 -0.0571,-1.274732 2.99e-4,-1.559744 0.117578,-0.58378 0.408692,-1.180678 0.802723,-1.645899 0.70673,-0.834415 1.508518,-1.284243 2.521154,-1.414448 0.335321,-0.04312 0.551122,-0.04301 0.884782,4.23e-4 1.00507,0.130843 1.874215,0.599349 2.4952608,1.345052 1.019068,1.223615 1.204498,2.864799 0.481921,4.265347 -0.242527,0.470083 -0.7875368,1.066729 -1.3011248,1.424398 -0.384721,0.267925 -0.989389,0.511871 -1.425081,0.574931 -0.294221,0.04259 -0.815882,0.06011 -1.112048,0.03736 z m 0.956493,-1.857482 c 0.258596,-0.07153 0.511609,-0.2265 0.761575,-0.466472 0.283417,-0.272085 0.492327,-0.613619 0.554347,-0.90627 0.04231,-0.199621 0.04259,-0.797462 4.74e-4,-0.992868 -0.124476,-0.577538 -0.703671,-1.185726 -1.303995,-1.369273 -0.202534,-0.06192 -0.686053,-0.08617 -0.949697,-0.04762 -0.55556,0.08123 -1.117337,0.520219 -1.407551,1.099892 -0.115839,0.231377 -0.145941,0.399069 -0.146403,0.815578 -4.48e-4,0.413693 0.01918,0.525843 0.136251,0.777998 0.116712,0.251392 0.249987,0.432766 0.47027,0.639993 0.322146,0.303052 0.641892,0.460754 0.987591,0.487093 0.292246,0.02227 0.749122,0.0029 0.897136,-0.03805 z M 19.372636,11.944736 19.372313,9.4815385 c -3.24e-4,-2.534368 -0.01416,-3.079423 -0.08773,-3.458945 -0.177561,-0.91597 -0.88371,-1.912887 -1.759147,-2.483503 -0.865825,-0.564351 -1.982729,-0.73996 -3.00159,-0.471932 -0.450558,0.118525 -0.95468,0.363045 -1.33832,0.649139 -0.2285,0.170402 -0.61469,0.555952 -0.782346,0.781054 -0.397827,0.534135 -0.644443,1.134812 -0.753804,1.836029 -0.026,0.166749 -0.05301,0.337339 -0.06,0.37909 l -0.01271,0.07591 -0.924817,-0.01123 c -0.508649,-0.0062 -0.9439378,-0.01923 -0.9673088,-0.02901 -0.03913,-0.01636 -0.04138,-0.03599 -0.02842,-0.247801 0.04695,-0.76728 0.274073,-1.607911 0.6225298,-2.30408 0.504959,-1.008842 1.333267,-1.901911 2.28797,-2.466857 0.813849,-0.481596 1.682475,-0.75175204 2.505357,-0.77920404 0.382128,-0.01275 1.074354,0.01927 1.369924,0.06336 0.494063,0.0737 1.154092,0.299706 1.673103,0.572891 1.004351,0.528645 1.842945,1.341525 2.422592,2.348303 0.364326,0.632787 0.627465,1.407002 0.732425,2.154942 0.05037,0.358939 0.07735,1.731384 0.0782,3.9772865 l 7.47e-4,1.85838 c -0.62127,1.336386 -1.522579,3.038076 -1.972911,3.880931 -0.0099,-0.349376 -0.0041,-2.078652 -0.0034,-3.861556 z"
     id="path5684"
     inkscape:connector-curvature="0"
     sodipodi:nodetypes="ccccccscccscccccccccccccccccccccccccccccsccssscccccccccscccccccccsccccccccccsccccccccc" />
</svg>
